<?xml version="1.0" standalone="no"?><!DOCTYPE svg PUBLIC "-//W3C//DTD SVG 1.1//EN" "http://www.w3.org/Graphics/SVG/1.1/DTD/svg11.dtd"><svg t="1600164246197" class="icon" viewBox="0 0 1024 1024" version="1.1" xmlns="http://www.w3.org/2000/svg" p-id="5054" xmlns:xlink="http://www.w3.org/1999/xlink" width="16" height="16"><defs><style type="text/css"></style></defs><path d="M512 55.296C256 55.296 51.2 260.096 51.2 512s204.8 456.704 460.8 456.704 456.704-204.8 456.704-456.704S763.904 55.296 512 55.296zM512 929.792C281.6 929.792 94.208 742.4 94.208 512S281.6 94.208 512 94.208 929.792 281.6 929.792 512C925.696 742.4 742.4 929.792 512 929.792zM738.304 490.496 281.6 490.496c-13.312 0-21.504 8.192-21.504 21.504 0 13.312 8.192 21.504 21.504 21.504l456.704 0c12.288 0 21.504-8.192 21.504-21.504C759.808 498.688 750.592 490.496 738.304 490.496z" p-id="5055" fill="#707070"></path></svg>