<?xml version="1.0" standalone="no"?><!DOCTYPE svg PUBLIC "-//W3C//DTD SVG 1.1//EN" "http://www.w3.org/Graphics/SVG/1.1/DTD/svg11.dtd"><svg t="1600784171125" class="icon" viewBox="0 0 1024 1024" version="1.1" xmlns="http://www.w3.org/2000/svg" p-id="8159" xmlns:xlink="http://www.w3.org/1999/xlink" width="16" height="16"><defs><style type="text/css"></style></defs><path d="M538.56 72.544a67.2 67.2 0 0 1 66.944 61.12l2.912 32.48 7.456 2.112c22.944 6.944 45.12 16.16 66.144 27.488l6.304 3.52 25.056-20.896a67.2 67.2 0 0 1 86.336 0.192l4.256 3.904 37.568 37.568a67.2 67.2 0 0 1 4.096 90.56l-20.928 25.056 3.584 6.368c11.328 21.024 20.544 43.2 27.456 66.144l2.08 7.392 32.48 2.944a67.2 67.2 0 0 1 60.992 62.016l0.16 4.896v53.184a67.2 67.2 0 0 1-61.12 66.912l-32.512 2.912-2.08 7.456a357.12 357.12 0 0 1-27.488 66.144l-3.552 6.304 20.928 25.056a67.2 67.2 0 0 1-0.192 86.336l-3.904 4.256-37.568 37.568a67.2 67.2 0 0 1-90.592 4.064l-25.056-20.896-6.304 3.552a357.12 357.12 0 0 1-66.144 27.488l-7.456 2.08-2.912 32.48a67.2 67.2 0 0 1-62.016 60.992l-4.896 0.16h-53.184a67.2 67.2 0 0 1-66.912-61.152l-2.944-32.48-7.36-2.08a357.12 357.12 0 0 1-66.176-27.456l-6.368-3.584-25.024 20.928a67.2 67.2 0 0 1-86.336-0.192l-4.256-3.904-37.568-37.568a67.2 67.2 0 0 1-4.064-90.592l20.864-25.056-3.52-6.304a357.12 357.12 0 0 1-27.488-66.144l-2.112-7.456-32.448-2.912a67.2 67.2 0 0 1-60.992-62.016l-0.16-4.896v-53.184a67.2 67.2 0 0 1 61.152-66.912l32.448-2.944 2.112-7.36c6.912-22.976 16.128-45.12 27.456-66.176l3.552-6.368-20.896-25.024a67.2 67.2 0 0 1 0.192-86.336l3.904-4.256 37.568-37.568a67.2 67.2 0 0 1 90.56-4.096l25.056 20.896 6.368-3.52a357.12 357.12 0 0 1 66.144-27.52l7.392-2.08 2.944-32.448a67.2 67.2 0 0 1 62.016-60.992l4.896-0.16z m0 64h-53.12a3.2 3.2 0 0 0-3.2 2.88l-7.2 79.872a293.568 293.568 0 0 0-143.872 59.584L269.6 227.52a3.2 3.2 0 0 0-4.288 0.192L227.712 265.312a3.2 3.2 0 0 0-0.192 4.288l51.36 61.568a293.568 293.568 0 0 0-59.584 143.872l-79.84 7.2a3.2 3.2 0 0 0-2.912 3.2v53.12a3.2 3.2 0 0 0 2.88 3.2l79.872 7.232a293.568 293.568 0 0 0 59.616 143.872L227.52 754.4a3.2 3.2 0 0 0 0.192 4.288l37.6 37.6a3.2 3.2 0 0 0 4.288 0.192l61.568-51.36a293.568 293.568 0 0 0 143.872 59.584l7.2 79.84a3.2 3.2 0 0 0 3.2 2.912h53.12a3.2 3.2 0 0 0 3.2-2.88l7.232-79.872a293.568 293.568 0 0 0 143.872-59.616l61.536 51.392a3.2 3.2 0 0 0 4.288-0.192l37.6-37.6a3.2 3.2 0 0 0 0.192-4.288l-51.392-61.536a293.568 293.568 0 0 0 59.616-143.872l79.84-7.232a3.2 3.2 0 0 0 2.912-3.2v-53.12a3.2 3.2 0 0 0-2.88-3.2l-79.872-7.2a293.568 293.568 0 0 0-59.584-143.872l51.36-61.568a3.2 3.2 0 0 0-0.192-4.288l-37.6-37.6a3.2 3.2 0 0 0-4.288-0.192l-61.536 51.392a293.568 293.568 0 0 0-143.872-59.616l-7.232-79.84a3.2 3.2 0 0 0-3.2-2.912zM512 343.456a168.544 168.544 0 1 1 0 337.088 168.544 168.544 0 0 1 0-337.088z m0 64a104.544 104.544 0 1 0 0 209.088 104.544 104.544 0 0 0 0-209.088z" fill="#707070" p-id="8160"></path></svg>